{"title":"Tum A Dangerous Obsession (2004) Hindi 18+ 1CD DVDRIP XviD@","uid":6784962,"size":796076442,"categoryP":"video","categoryS":"movies","magnet":"?xt=urn:btih:db3f78d4203f52ac4a24d49103cb6ffd80b0ace5&amp;dn=Tum+A+Dangerous+Obsession+%282004%29+Hindi+18%2B+1CD+DVDRIP+XviD%40&amp;tr=udp%3A%2F%2Ftracker.openbittorrent.com%3A80&amp;tr=udp%3A%2F%2Fopen.demonii.com%3A1337&amp;tr=udp%3A%2F%2Ftracker.coppersurfer.tk%3A6969&amp;tr=udp%3A%2F%2Fexodus.desync.com%3A6969","seeders":1,"leechers":2,"uploader":"amanrulz","files":3,"time":1320054978,"description":"mastitorrents.com\n &lt;a href=&quot;\nhttp://mastitorrents.com/forums/index.php&quot; rel=&quot;nofollow&quot; target=&quot;_NEW&quot;&gt;\nhttp://mastitorrents.com/forums/index.php&lt;/a&gt;\n\nGeneral\n\nFormat : AVI\nFormat/Info : Audio Video Interleave\nFile size : 759 MiB\nDuration : 2h 21mn\nOverall bit rate : 752 Kbps\nWriting application : MEncoder SVN-r30881(20100311-gcc4.3.3)\nWriting library : MPlayer\n\n\nVideo\n\nID : 0\nFormat : MPEG-4 Visual\nFormat profile : Advanced Simple@L5\nFormat settings, BVOP : 2\nFormat settings, QPel : No\nFormat settings, GMC : No warppoints\nFormat settings, Matrix : Default (H.263)\nCodec ID : XVID\nCodec ID/Hint : XviD\nDuration : 2h 21mn\nBit rate : 612 Kbps\nWidth : 640 pixels\nHeight : 284 pixels\nDisplay aspect ratio : 2.25:1\nFrame rate : 25.000 fps\nColor space : YUV\nChroma subsampling : 4:2:0\nBit depth : 8 bits\nScan type : Progressive\nCompression mode : Lossy\nBits/(Pixel*Frame) : 0.135\nStream size : 618 MiB (81%)\nWriting library : XviD 1.2.1 (UTC 2008-12-04)\n\n\nAudio\n\nID : 1\nFormat : MPEG Audio\nFormat version : Version 1\nFormat profile : Layer 3\nMode : Joint stereo\nMode extension : MS Stereo\nCodec ID : 55\nCodec ID/Hint : MP3\nDuration : 2h 21mn\nBit rate mode : Constant\nBit rate : 128 Kbps\nChannel(s) : 2 channels\nSampling rate : 44.1 KHz\nCompression mode : Lossy\nDelay relative to video : 40ms\nStream size : 129 MiB (17%)\nAlignment : Aligned on interleaves\nInterleave, duration : 26 ms (0.65 video frame)\nInterleave, preload duration : 522 ms\nWriting library : LAME3.98\nLanguage : Hindi","torrent":{"xt":"urn:btih:db3f78d4203f52ac4a24d49103cb6ffd80b0ace5","amp;dn":"Tum+A+Dangerous+Obsession+%282004%29+Hindi+18%2B+1CD+DVDRIP+XviD%40","amp;tr":["udp%3A%2F%2Ftracker.openbittorrent.com%3A80","udp%3A%2F%2Fopen.demonii.com%3A1337","udp%3A%2F%2Ftracker.coppersurfer.tk%3A6969","udp%3A%2F%2Fexodus.desync.com%3A6969"],"infoHash":"db3f78d4203f52ac4a24d49103cb6ffd80b0ace5","infoHashBuffer":{"type":"Buffer","data":[219,63,120,212,32,63,82,172,74,36,212,145,3,203,111,253,128,176,172,229]},"announce":[],"urlList":[]}}